<svg width="24" height="24" viewBox="0 0 24 24" fill="none" xmlns="http://www.w3.org/2000/svg">
<path d="M15.9128 5.52968C16.1054 5.41198 16.2358 5.2148 16.2687 4.99148C16.3016 4.76816 16.2335 4.54177 16.083 4.37354L13.4425 1.42205C13.2457 1.2021 12.9394 1.11584 12.6568 1.20075C12.3741 1.28566 12.1661 1.52641 12.1231 1.81838L11.8673 3.55594L11.6426 5.08178L11.3844 6.83491C11.3414 7.12689 11.4712 7.41738 11.7174 7.58016C11.9636 7.74294 12.2817 7.74862 12.5335 7.59473L15.9128 5.52968Z" fill="#E31E30"/>
<path d="M20 12C20 16.4183 16.4183 20 12 20C7.58172 20 4 16.4183 4 12C4 7.58172 7.58172 4 12 4" stroke="#E31E30" stroke-width="2" stroke-linecap="round"/>
<path d="M9.4984 9.10664C10.0507 9.10664 10.4984 9.55435 10.4984 10.1066V13.6845C10.4984 14.101 10.1608 14.4386 9.74431 14.4386C9.32784 14.4386 8.99022 14.101 8.99022 13.6845V10.7672C8.99022 10.4937 8.76855 10.272 8.49511 10.272C8.22167 10.272 8 10.0504 8 9.77694V9.68934C8 9.36753 8.26089 9.10664 8.58271 9.10664H9.4984Z" fill="#E31E30"/>
<path d="M13.6539 14.5452C13.1969 14.5452 12.7907 14.436 12.4352 14.2177C12.0798 13.9993 11.8005 13.682 11.5973 13.2656C11.3993 12.8441 11.3003 12.3464 11.3003 11.7726C11.3003 11.1988 11.3993 10.7037 11.5973 10.2873C11.8005 9.86581 12.0798 9.54589 12.4352 9.32753C12.7907 9.10918 13.1969 9 13.6539 9C14.1059 9 14.5096 9.10918 14.8651 9.32753C15.2205 9.54589 15.4973 9.86581 15.6953 10.2873C15.8984 10.7037 16 11.1988 16 11.7726C16 12.3464 15.8984 12.8441 15.6953 13.2656C15.4973 13.682 15.2205 13.9993 14.8651 14.2177C14.5096 14.436 14.1059 14.5452 13.6539 14.5452ZM13.6539 13.3113C13.9078 13.3113 14.1084 13.1894 14.2557 12.9456C14.408 12.6968 14.4842 12.3058 14.4842 11.7726C14.4842 11.2394 14.408 10.8509 14.2557 10.6072C14.1084 10.3584 13.9078 10.234 13.6539 10.234C13.395 10.234 13.1893 10.3584 13.037 10.6072C12.8897 10.8509 12.8161 11.2394 12.8161 11.7726C12.8161 12.3058 12.8897 12.6968 13.037 12.9456C13.1893 13.1894 13.395 13.3113 13.6539 13.3113Z" fill="#E31E30"/>
</svg>
