<svg width="24" height="24" viewBox="0 0 24 24" fill="none" xmlns="http://www.w3.org/2000/svg">
<path fill-rule="evenodd" clip-rule="evenodd" d="M20 9.29865C20 8.74895 19.5544 8.30332 19.0047 8.30332L15.6967 8.30332V4.99533C15.6967 4.44562 15.2511 4 14.7014 4C14.1516 4 13.706 4.44562 13.706 4.99533V9.29865C13.706 9.84835 14.1516 10.294 14.7014 10.294L19.0047 10.294C19.5544 10.294 20 9.84835 20 9.29865Z" fill="#E31E30"/>
<path fill-rule="evenodd" clip-rule="evenodd" d="M14.7014 20C15.2511 20 15.6967 19.5544 15.6967 19.0047L15.6967 15.6967L19.0047 15.6967C19.5544 15.6967 20 15.2511 20 14.7014C20 14.1516 19.5544 13.706 19.0047 13.706L14.7014 13.706C14.1517 13.706 13.7061 14.1516 13.7061 14.7014L13.7061 19.0047C13.7061 19.5544 14.1517 20 14.7014 20Z" fill="#E31E30"/>
<path fill-rule="evenodd" clip-rule="evenodd" d="M9.29865 20C8.74895 20 8.30332 19.5544 8.30332 19.0047V15.6967H4.99533C4.44562 15.6967 4 15.2511 4 14.7013C4 14.1516 4.44562 13.706 4.99533 13.706L9.29865 13.706C9.84835 13.706 10.294 14.1516 10.294 14.7014L10.294 19.0047C10.294 19.5544 9.84835 20 9.29865 20Z" fill="#E31E30"/>
<path fill-rule="evenodd" clip-rule="evenodd" d="M4.00003 9.29865C4.00003 8.74895 4.44566 8.30332 4.99536 8.30332H8.30336L8.30336 4.99533C8.30336 4.44562 8.74898 4 9.29869 4C9.84839 4 10.294 4.44562 10.294 4.99533L10.294 9.29865C10.294 9.84835 9.84839 10.294 9.29868 10.294L4.99536 10.294C4.44566 10.294 4.00003 9.84835 4.00003 9.29865Z" fill="#E31E30"/>
</svg>
