<svg width="24" height="24" viewBox="0 0 24 24" fill="none" xmlns="http://www.w3.org/2000/svg">
<path fill-rule="evenodd" clip-rule="evenodd" d="M14.0781 4.9365C14.0781 5.45371 14.4974 5.87299 15.0146 5.87299L18.127 5.87299V8.98546C18.127 9.50267 18.5463 9.92195 19.0635 9.92195C19.5807 9.92195 20 9.50267 20 8.98546V4.9365C20 4.41928 19.5807 4 19.0635 4L15.0146 4C14.4974 4 14.0781 4.41928 14.0781 4.9365Z" fill="#E31E30"/>
<path fill-rule="evenodd" clip-rule="evenodd" d="M19.0635 14.078C18.5463 14.078 18.127 14.4973 18.127 15.0145L18.127 18.127L15.0145 18.127C14.4973 18.127 14.078 18.5463 14.078 19.0635C14.078 19.5807 14.4973 20 15.0145 20L19.0635 20C19.5807 20 20 19.5807 20 19.0635L20 15.0145C20 14.4973 19.5807 14.078 19.0635 14.078Z" fill="#E31E30"/>
<path fill-rule="evenodd" clip-rule="evenodd" d="M4.93653 14.078C5.45374 14.078 5.87303 14.4973 5.87303 15.0145L5.87303 18.127L8.98549 18.127C9.5027 18.127 9.92199 18.5463 9.92199 19.0635C9.92199 19.5807 9.5027 20 8.98549 20L4.93653 20C4.41932 20 4.00003 19.5807 4.00003 19.0635L4.00003 15.0145C4.00003 14.4973 4.41932 14.078 4.93653 14.078Z" fill="#E31E30"/>
<path fill-rule="evenodd" clip-rule="evenodd" d="M9.92195 4.9365C9.92195 5.45371 9.50267 5.87299 8.98546 5.87299L5.87299 5.87299L5.87299 8.98546C5.87299 9.50267 5.45371 9.92195 4.9365 9.92195C4.41928 9.92195 4 9.50267 4 8.98546L4 4.9365C4 4.41928 4.41928 4 4.9365 4L8.98546 4C9.50267 4 9.92195 4.41928 9.92195 4.9365Z" fill="#E31E30"/>
</svg>
