<svg width="30" height="30" viewBox="0 0 30 30" fill="none" xmlns="http://www.w3.org/2000/svg">
<path d="M2.9454 0.580566C2.58656 1.02929 2.40953 1.59909 2.45009 2.17479V27.3635C2.41581 27.9422 2.48675 28.3957 2.84952 28.9221L2.96791 29.0661L16.9717 14.94V14.6097L3.0242 0.500854L2.9454 0.580566Z" fill="#C4C5DA"/>
<path d="M21.6657 19.5814L16.9712 14.992V14.6697L21.6657 10.0692L21.7688 10.1248L27.3908 13.2251C28.9938 14.103 28.9938 15.5476 27.3908 16.4366L21.7688 19.5814H21.6657Z" fill="#C4C5DA"/>
<path d="M16.9076 14.8536L2.94922 29.0375C3.01416 29.1309 3.09199 29.2127 3.17974 29.283C3.75197 29.7416 4.51477 29.7416 5.43093 29.216L21.7693 19.5816L16.9076 14.8536Z" fill="#C4C5DA"/>
<path d="M21.7692 10.1249L5.3428 0.475816C4.65474 -0.0785386 3.6813 -0.0495956 3.02539 0.544719L16.9187 14.8536L21.7692 10.1249Z" fill="#C4C5DA"/>
</svg>
