<svg width="24" height="24" viewBox="0 0 24 24" fill="none" xmlns="http://www.w3.org/2000/svg">
<path class="red" d="M8.09992 7.37051C7.91 7.25445 7.78143 7.06002 7.74901 6.8398C7.71658 6.61959 7.78364 6.39636 7.93205 6.23047L10.5358 3.3201C10.7299 3.10321 11.0319 3.01815 11.3106 3.10188C11.5893 3.1856 11.7944 3.423 11.8368 3.71091L12.0891 5.42426L12.3106 6.92885L12.5652 8.65756C12.6076 8.94547 12.4796 9.23192 12.2369 9.39243C11.9941 9.55294 11.6804 9.55854 11.4321 9.40679L8.09992 7.37051Z" fill="#FFFFFF"/>
<path  d="M5 13C5 16.866 8.13401 20 12 20C15.866 20 19 16.866 19 13C19 9.13401 15.866 6 12 6" stroke="#FFFFFF" stroke-width="2" stroke-linecap="round"/>
</svg>
