<svg width="24" height="24" viewBox="0 0 24 24" fill="none" xmlns="http://www.w3.org/2000/svg">
<path d="M18.0323 7.94858C17.8895 7.55978 17.4585 7.3604 17.0697 7.50325C16.6809 7.6461 16.4815 8.07709 16.6243 8.46589C17.0288 9.56683 17.25 10.7572 17.25 12.0009C17.25 13.0325 17.0979 14.0272 16.8152 14.9645C16.7995 15.0168 16.7834 15.0688 16.7668 15.1207C16.7222 15.2604 16.6747 15.3988 16.6243 15.5359C16.4815 15.9247 16.6809 16.3557 17.0697 16.4985C17.4585 16.6414 17.8895 16.442 18.0323 16.0532C18.0901 15.8959 18.1446 15.7371 18.1958 15.5767C18.2148 15.5172 18.2333 15.4575 18.2514 15.3975C18.5759 14.3213 18.75 13.1808 18.75 12.0009C18.75 10.5781 18.4968 9.21275 18.0323 7.94858Z" fill="#E31E30"/>
<path d="M14.6096 4.84591C14.5115 4.06128 13.5846 3.6955 12.9771 4.20172L7.95804 8.38431C7.86818 8.45919 7.75492 8.5002 7.63795 8.5002H3.75C3.05964 8.5002 2.5 9.05984 2.5 9.7502V14.2502C2.5 14.9406 3.05964 15.5002 3.75 15.5002H7.63795C7.75492 15.5002 7.86818 15.5412 7.95804 15.6161L12.9771 19.7987C13.5846 20.3049 14.5115 19.9391 14.6096 19.1545L14.7054 18.388C15.2357 14.146 15.2357 9.85443 14.7054 5.61241L14.6096 4.84591Z" fill="#E31E30"/>
</svg>
