<svg width="14" height="17" viewBox="0 0 14 17" fill="none" xmlns="http://www.w3.org/2000/svg">
<path d="M6.99805 8.78906C4.5749 8.78906 2.60352 6.81768 2.60352 4.39453C2.60352 1.97139 4.5749 0 6.99805 0C9.42119 0 11.3926 1.97139 11.3926 4.39453C11.3926 6.81768 9.42119 8.78906 6.99805 8.78906Z" fill="#C4C5DA"/>
<path d="M12.7633 11.1222C12.3817 10.7526 11.97 10.4244 11.5345 10.1388C10.286 11.1267 8.71065 11.7187 6.99864 11.7187C5.28663 11.7187 3.71123 11.1267 2.46279 10.1387C2.02725 10.4244 1.61563 10.7525 1.23399 11.1221C0.759571 11.5814 0.347168 12.0894 0 12.6342C1.60674 14.7467 4.1459 16.1132 6.99864 16.1132C9.85138 16.1132 12.3906 14.7467 13.9973 12.6343C13.6501 12.0894 13.2377 11.5815 12.7633 11.1222Z" fill="#C4C5DA"/>
</svg>
